HIERARCHY
ROOT Elbow
{
	OFFSET	0.00	0.00	0.00
	CHANNELS 6 Xposition Yposition Zposition Zrotation Xrotation Yrotation
	JOINT L_Wrist
	{
		OFFSET	 0.208349	 0.000000	 0.000000
		CHANNELS 3 Zrotation Xrotation Yrotation
		JOINT L_index_Proximal
		{
			OFFSET	 0.093499	 0.010637	-0.002084
			CHANNELS 3 Zrotation Xrotation Yrotation
			JOINT L_index_b
			{
				OFFSET	 0.033152	 0.000000	 0.000000
				CHANNELS 3 Zrotation Xrotation Yrotation
				JOINT L_index_c
				{
					OFFSET	 0.018651	 0.000000	 0.000000
					CHANNELS 3 Zrotation Xrotation Yrotation
					End Site
					{
						OFFSET	 0.018651	 0.000000	 0.000000
					}
				}
			}
		}
		JOINT L_middle_Proximal
		{
			OFFSET	 0.090632	-0.006115	-0.003750
			CHANNELS 3 Zrotation Xrotation Yrotation
			JOINT L_middle_b
			{
				OFFSET	 0.037195	 0.000000	 0.000000
				CHANNELS 3 Zrotation Xrotation Yrotation
				JOINT L_middle_c
				{
					OFFSET	 0.021943	 0.000000	 0.000000
					CHANNELS 3 Zrotation Xrotation Yrotation
					End Site
					{
						OFFSET	 0.021943	 0.000000	 0.000000
					}
				}
			}
		}
		JOINT L_pinky_Proximal
		{
			OFFSET	 0.074015	-0.035449	-0.000417
			CHANNELS 3 Zrotation Xrotation Yrotation
			JOINT L_pinky_b
			{
				OFFSET	 0.027285	 0.000000	 0.000000
				CHANNELS 3 Zrotation Xrotation Yrotation
				JOINT L_pinky_c
				{
					OFFSET	 0.015093	 0.000000	 0.000000
					CHANNELS 3 Zrotation Xrotation Yrotation
					End Site
					{
						OFFSET	 0.015093	 0.000000	 0.000000
					}
				}
			}
		}
		JOINT L_ring_Proximal
		{
			OFFSET	 0.082801	-0.021859	-0.003750
			CHANNELS 3 Zrotation Xrotation Yrotation
			JOINT L_ring_b
			{
				OFFSET	 0.034478	 0.000000	 0.000000
				CHANNELS 3 Zrotation Xrotation Yrotation
				JOINT L_ring_c
				{
					OFFSET	 0.021377	 0.000000	 0.000000
					CHANNELS 3 Zrotation Xrotation Yrotation
					End Site
					{
						OFFSET	 0.021377	 0.000000	 0.000000
					}
				}
			}
		}
		JOINT L_thumb_Proximal
		{
			OFFSET	 0.030306	 0.018528	 0.004584
			CHANNELS 3 Zrotation Xrotation Yrotation
			JOINT L_thumb_a
			{
				OFFSET	 0.038520	 0.000000	 0.000000
				CHANNELS 3 Zrotation Xrotation Yrotation
				JOINT L_thumb_b
				{
					OFFSET	 0.026310	 0.000000	 0.000000
					CHANNELS 3 Zrotation Xrotation Yrotation
					End Site
					{
						OFFSET	 0.026310	 0.000000	 0.000000
					}
				}
			}
		}
	}
}
MOTION
Frames:    7
Frame Time: 0.01666667
 0.139726	-0.144443	 0.690899	 65.443120	 50.260030	 49.183950	-8.044347	 2.296755	 13.147640	-5.380302	 4.544101	-75.473130	-6.177502	 5.696455	-85.351820	-2.495813	 0.922985	-40.584710	-10.539530	-7.637064	-78.692230	 3.154833	-3.394400	-94.191970	 4.261836	-1.680758	-43.030800	-30.354740	-16.636480	-86.799590	 1.674091	-1.476571	-82.822640	 4.358099	-1.499966	-37.969910	-18.310040	-11.924710	-83.205830	 5.978306	-6.234907	-92.411670	 6.256387	-2.186087	-38.489470	 63.041380	 59.058710	-20.605260	-1.157216	-0.010990	 1.088527	 2.379051	-0.204016	-9.801371
 0.139965	-0.144604	 0.691179	 65.175420	 50.396230	 49.408130	-8.143252	 2.295815	 13.142140	-5.280437	 4.439626	-75.452490	-6.050388	 5.586558	-85.427130	-2.422363	 0.897304	-40.646910	-10.515050	-7.672676	-78.730450	 3.124412	-3.366096	-94.267700	 4.216572	-1.664674	-43.072550	-30.451200	-16.557760	-86.689210	 1.550542	-1.371184	-82.977420	 4.244703	-1.463780	-38.039480	-18.343240	-11.903740	-83.185410	 5.947392	-6.213495	-92.512030	 6.238794	-2.181818	-38.520230	 62.902280	 59.113230	-20.364920	-1.208434	-0.012760	 1.208268	 2.393488	-0.202808	-9.684827
 0.140171	-0.144557	 0.691374	 64.963880	 50.498360	 49.562080	-8.201707	 2.294996	 13.137240	-5.215730	 4.365791	-75.402930	-5.981899	 5.524908	-85.443830	-2.390772	 0.887247	-40.717370	-10.509270	-7.689755	-78.747890	 3.094105	-3.334486	-94.285360	 4.172633	-1.649414	-43.122770	-30.488490	-16.533380	-86.664740	 1.476934	-1.307867	-83.055280	 4.169755	-1.441130	-38.118540	-18.355430	-11.903250	-83.193520	 5.922903	-6.195077	-92.578680	 6.232834	-2.182289	-38.562140	 62.854960	 59.128780	-20.262050	-1.228307	-0.013535	 1.261965	 2.368157	-0.198457	-9.578704
 0.140528	-0.144445	 0.691734	 64.854500	 50.561440	 49.634930	-8.204789	 2.296985	 13.148940	-5.177607	 4.337065	-75.231650	-5.929501	 5.484729	-85.529810	-2.377513	 0.882775	-40.735380	-10.470990	-7.707397	-78.733280	 3.131363	-3.377492	-94.333460	 4.165278	-1.647432	-43.144660	-30.479350	-16.526160	-86.621430	 1.462672	-1.297660	-83.157590	 4.108050	-1.422605	-38.188210	-18.328470	-11.911680	-83.145610	 5.968942	-6.247461	-92.617070	 6.220078	-2.180720	-38.609680	 63.044030	 59.090640	-20.439980	-1.209048	-0.013115	 1.242891	 2.379598	-0.197370	-9.482425
 0.140745	-0.144284	 0.691885	 64.741700	 50.621480	 49.701740	-8.215444	 2.292510	 13.122820	-5.113171	 4.271650	-75.172780	-5.860272	 5.418880	-85.510800	-2.378867	 0.883712	-40.754200	-10.417850	-7.760699	-78.747360	 3.165651	-3.416830	-94.373340	 4.123604	-1.630797	-43.141030	-30.450680	-16.556330	-86.664640	 1.444820	-1.282153	-83.171520	 4.050360	-1.404214	-38.228890	-18.278660	-11.965510	-83.159090	 6.029401	-6.312408	-92.632400	 6.231290	-2.186297	-38.636740	 63.168490	 59.052760	-20.535420	-1.211271	-0.013217	 1.252588	 2.330458	-0.193295	-9.480640
 0.141008	-0.144295	 0.692305	 64.591090	 50.674470	 49.790290	-8.184789	 2.282269	 13.063110	-5.017842	 4.191170	-75.228100	-5.805444	 5.370775	-85.538390	-2.468687	 0.919307	-40.843890	-10.366430	-7.807912	-78.797250	 3.167251	-3.420093	-94.399150	 4.028996	-1.595024	-43.182020	-30.383940	-16.616090	-86.798170	 1.496336	-1.329505	-83.243130	 4.000365	-1.386818	-38.226820	-18.226200	-12.018390	-83.206870	 6.077655	-6.367358	-92.672520	 6.174470	-2.169643	-38.691340	 63.541190	 58.939770	-20.849730	-1.244185	-0.013603	 1.256184	 2.264454	-0.187665	-9.472779
 0.141152	-0.144215	 0.692620	 64.457830	 50.740130	 49.877320	-8.153500	 2.276041	 13.026940	-5.007593	 4.174206	-75.202770	-5.809626	 5.371073	-85.500400	-2.498934	 0.931552	-40.883560	-10.336390	-7.842320	-78.805820	 3.176767	-3.429814	-94.389260	 4.014567	-1.589694	-43.191750	-30.365570	-16.636370	-86.886320	 1.448967	-1.287748	-83.255340	 3.938779	-1.365274	-38.222980	-18.196040	-12.055280	-83.217230	 6.107336	-6.398098	-92.669300	 6.183360	-2.173640	-38.705870	 63.479480	 58.956120	-20.794280	-1.271300	-0.013652	 1.228623	 2.244671	-0.186022	-9.473128
